<svg width="78" height="21" viewBox="0 0 78 21" fill="none" xmlns="http://www.w3.org/2000/svg">
<path d="M0.1816 19.8439V18.1623L10.4954 2.76629H0.069493V0.711005H13.2607V2.3926L2.9469 17.7886H13.3728V19.8439H0.1816ZM17.7345 0.711005V19.8439H15.4176V0.711005H17.7345ZM20.5384 19.8439V0.711005H22.8553V17.7886H31.7491V19.8439H20.5384ZM35.8118 0.711005V19.8439H33.4949V0.711005H35.8118ZM44.1732 19.8439V0.711005H46.49V17.7886H55.3838V19.8439H44.1732ZM59.4466 0.711005V19.8439H57.1297V0.711005H59.4466ZM74.8064 0.711005H77.1233V13.3791C77.1233 14.687 76.815 15.8547 76.1984 16.8824C75.588 17.9038 74.7254 18.7103 73.6106 19.302C72.4958 19.8875 71.1879 20.1802 69.6869 20.1802C68.1859 20.1802 66.878 19.8875 65.7631 19.302C64.6483 18.7103 63.7826 17.9038 63.166 16.8824C62.5556 15.8547 62.2505 14.687 62.2505 13.3791V0.711005H64.5673V13.1922C64.5673 14.1264 64.7729 14.9579 65.1839 15.6866C65.595 16.409 66.1804 16.9789 66.9403 17.3962C67.7063 17.8073 68.6219 18.0128 69.6869 18.0128C70.7519 18.0128 71.6674 17.8073 72.4335 17.3962C73.1996 16.9789 73.785 16.409 74.1898 15.6866C74.6009 14.9579 74.8064 14.1264 74.8064 13.1922V0.711005Z" fill="currentColor"/>
</svg>
